<svg xmlns="http://www.w3.org/2000/svg" xmlns:xlink="http://www.w3.org/1999/xlink" width="1080" zoomAndPan="magnify" viewBox="0 0 810 1012.49997" height="1350" preserveAspectRatio="xMidYMid meet" version="1.0"><defs><clipPath id="5431a71588"><path d="M 38.386719 226.707031 L 771.527344 226.707031 L 771.527344 785.183594 L 38.386719 785.183594 Z M 38.386719 226.707031 " clip-rule="nonzero"/></clipPath><clipPath id="9d077e66bd"><path d="M 38.386719 226.707031 L 771.527344 226.707031 L 771.527344 314 L 38.386719 314 Z M 38.386719 226.707031 " clip-rule="nonzero"/></clipPath></defs><path fill="#f1f2f2" d="M 70.804688 228.65625 L 739.03125 228.65625 C 740.035156 228.65625 741.035156 228.707031 742.035156 228.804688 C 743.03125 228.902344 744.023438 229.050781 745.003906 229.246094 C 745.988281 229.441406 746.960938 229.683594 747.921875 229.972656 C 748.878906 230.265625 749.824219 230.601562 750.75 230.988281 C 751.675781 231.371094 752.582031 231.796875 753.464844 232.269531 C 754.351562 232.746094 755.207031 233.257812 756.042969 233.816406 C 756.875 234.375 757.679688 234.96875 758.457031 235.605469 C 759.230469 236.242188 759.972656 236.914062 760.683594 237.625 C 761.390625 238.332031 762.0625 239.074219 762.699219 239.851562 C 763.335938 240.625 763.933594 241.429688 764.488281 242.261719 C 765.046875 243.097656 765.5625 243.957031 766.035156 244.839844 C 766.507812 245.726562 766.9375 246.628906 767.320312 247.558594 C 767.703125 248.484375 768.039062 249.425781 768.332031 250.386719 C 768.621094 251.34375 768.867188 252.316406 769.0625 253.300781 C 769.257812 254.285156 769.402344 255.273438 769.503906 256.273438 C 769.601562 257.269531 769.648438 258.269531 769.648438 259.273438 L 769.648438 752.878906 C 769.648438 753.878906 769.601562 754.882812 769.503906 755.878906 C 769.402344 756.875 769.257812 757.867188 769.0625 758.851562 C 768.867188 759.835938 768.621094 760.804688 768.332031 761.765625 C 768.039062 762.726562 767.703125 763.667969 767.320312 764.59375 C 766.9375 765.519531 766.507812 766.425781 766.035156 767.3125 C 765.5625 768.195312 765.046875 769.054688 764.488281 769.886719 C 763.933594 770.722656 763.335938 771.527344 762.699219 772.300781 C 762.0625 773.078125 761.390625 773.820312 760.683594 774.527344 C 759.972656 775.238281 759.230469 775.910156 758.457031 776.546875 C 757.679688 777.179688 756.875 777.777344 756.042969 778.335938 C 755.207031 778.890625 754.351562 779.40625 753.464844 779.878906 C 752.582031 780.351562 751.675781 780.78125 750.75 781.164062 C 749.824219 781.546875 748.878906 781.886719 747.921875 782.175781 C 746.960938 782.46875 745.988281 782.710938 745.003906 782.90625 C 744.023438 783.101562 743.03125 783.25 742.035156 783.347656 C 741.035156 783.445312 740.035156 783.496094 739.03125 783.496094 L 70.804688 783.496094 C 69.800781 783.496094 68.800781 783.445312 67.804688 783.347656 C 66.804688 783.25 65.816406 783.101562 64.832031 782.90625 C 63.847656 782.710938 62.878906 782.46875 61.917969 782.175781 C 60.957031 781.886719 60.015625 781.546875 59.089844 781.164062 C 58.164062 780.78125 57.257812 780.351562 56.371094 779.878906 C 55.488281 779.40625 54.628906 778.890625 53.796875 778.335938 C 52.960938 777.777344 52.15625 777.179688 51.382812 776.546875 C 50.605469 775.910156 49.863281 775.238281 49.15625 774.527344 C 48.445312 773.820312 47.773438 773.078125 47.136719 772.300781 C 46.5 771.527344 45.90625 770.722656 45.347656 769.886719 C 44.789062 769.054688 44.277344 768.195312 43.804688 767.3125 C 43.332031 766.425781 42.902344 765.519531 42.519531 764.59375 C 42.136719 763.667969 41.796875 762.726562 41.507812 761.765625 C 41.214844 760.804688 40.972656 759.835938 40.777344 758.851562 C 40.582031 757.867188 40.433594 756.875 40.335938 755.878906 C 40.238281 754.882812 40.1875 753.878906 40.1875 752.878906 L 40.1875 259.273438 C 40.1875 258.269531 40.238281 257.269531 40.335938 256.273438 C 40.433594 255.273438 40.582031 254.285156 40.777344 253.300781 C 40.972656 252.316406 41.214844 251.34375 41.507812 250.386719 C 41.796875 249.425781 42.136719 248.484375 42.519531 247.558594 C 42.902344 246.628906 43.332031 245.726562 43.804688 244.839844 C 44.277344 243.957031 44.789062 243.097656 45.347656 242.261719 C 45.90625 241.429688 46.5 240.625 47.136719 239.851562 C 47.773438 239.074219 48.445312 238.332031 49.15625 237.625 C 49.863281 236.914062 50.605469 236.242188 51.382812 235.605469 C 52.15625 234.96875 52.960938 234.375 53.796875 233.816406 C 54.628906 233.257812 55.488281 232.746094 56.371094 232.269531 C 57.257812 231.796875 58.164062 231.371094 59.089844 230.988281 C 60.015625 230.601562 60.957031 230.265625 61.917969 229.972656 C 62.878906 229.683594 63.847656 229.441406 64.832031 229.246094 C 65.816406 229.050781 66.804688 228.902344 67.804688 228.804688 C 68.800781 228.707031 69.800781 228.65625 70.804688 228.65625 Z M 70.804688 228.65625 " fill-opacity="1" fill-rule="nonzero"/><g clip-path="url(#5431a71588)"><path fill="#83b445" d="M 739.035156 230.457031 C 754.953125 230.457031 767.855469 243.355469 767.855469 259.273438 L 767.855469 752.875 C 767.855469 768.792969 754.953125 781.691406 739.035156 781.691406 L 70.804688 781.691406 C 54.886719 781.691406 41.988281 768.792969 41.988281 752.875 L 41.988281 259.273438 C 41.988281 243.355469 54.886719 230.457031 70.804688 230.457031 L 739.035156 230.457031 M 739.035156 226.855469 L 70.804688 226.855469 C 52.929688 226.855469 38.386719 241.398438 38.386719 259.273438 L 38.386719 752.875 C 38.386719 770.75 52.929688 785.292969 70.804688 785.292969 L 739.035156 785.292969 C 756.910156 785.292969 771.453125 770.75 771.453125 752.875 L 771.453125 259.273438 C 771.453125 241.398438 756.910156 226.855469 739.035156 226.855469 Z M 739.035156 226.855469 " fill-opacity="1" fill-rule="nonzero"/></g><path fill="#1e1d1d" d="M 40.1875 311.582031 L 40.1875 257.378906 C 40.1875 241.542969 53.070312 228.65625 68.910156 228.65625 L 740.929688 228.65625 C 756.765625 228.65625 769.648438 241.542969 769.648438 257.375 L 769.648438 311.578125 L 40.1875 311.578125 Z M 40.1875 311.582031 " fill-opacity="1" fill-rule="nonzero"/><g clip-path="url(#9d077e66bd)"><path fill="#83b445" d="M 740.929688 230.457031 C 755.800781 230.457031 767.851562 242.511719 767.851562 257.375 L 767.851562 309.777344 L 41.988281 309.777344 L 41.988281 257.375 C 41.988281 242.511719 54.042969 230.457031 68.910156 230.457031 L 740.929688 230.457031 M 740.929688 226.855469 L 68.910156 226.855469 C 52.082031 226.855469 38.386719 240.550781 38.386719 257.375 L 38.386719 313.378906 L 771.449219 313.378906 L 771.449219 257.375 C 771.449219 240.546875 757.757812 226.855469 740.929688 226.855469 Z M 740.929688 226.855469 " fill-opacity="1" fill-rule="nonzero"/></g><path fill="#83b445" d="M 96.828125 293.070312 C 84.171875 293.070312 73.875 282.773438 73.875 270.117188 C 73.875 257.464844 84.171875 247.167969 96.828125 247.167969 C 109.480469 247.167969 119.78125 257.464844 119.78125 270.117188 C 119.78125 282.773438 109.484375 293.070312 96.828125 293.070312 Z M 96.828125 293.070312 " fill-opacity="1" fill-rule="nonzero"/><path fill="#83b445" d="M 96.828125 248.964844 C 108.507812 248.964844 117.976562 258.433594 117.976562 270.117188 C 117.976562 281.796875 108.507812 291.265625 96.828125 291.265625 C 85.144531 291.265625 75.675781 281.796875 75.675781 270.117188 C 75.675781 258.433594 85.144531 248.964844 96.828125 248.964844 M 96.828125 245.363281 C 83.175781 245.363281 72.074219 256.46875 72.074219 270.117188 C 72.074219 283.761719 83.179688 294.867188 96.828125 294.867188 C 110.472656 294.867188 121.578125 283.761719 121.578125 270.117188 C 121.578125 256.46875 110.472656 245.363281 96.828125 245.363281 Z M 96.828125 245.363281 " fill-opacity="1" fill-rule="nonzero"/><path fill="#83b445" d="M 719.082031 270.117188 L 733.578125 255.617188 C 733.960938 255.238281 734.167969 254.730469 734.167969 254.191406 C 734.167969 253.652344 733.960938 253.148438 733.578125 252.769531 C 732.792969 251.980469 731.511719 251.980469 730.726562 252.769531 L 716.230469 267.269531 L 701.730469 252.769531 C 700.945312 251.988281 699.667969 251.984375 698.875 252.769531 C 698.503906 253.148438 698.289062 253.652344 698.289062 254.191406 C 698.289062 254.730469 698.503906 255.234375 698.878906 255.617188 L 713.378906 270.117188 L 698.878906 284.613281 C 698.5 284.992188 698.289062 285.5 698.289062 286.039062 C 698.289062 286.578125 698.5 287.085938 698.878906 287.464844 C 699.664062 288.25 700.945312 288.25 701.730469 287.464844 L 716.230469 272.960938 L 730.726562 287.464844 C 731.109375 287.84375 731.617188 288.054688 732.15625 288.054688 C 732.699219 288.054688 733.203125 287.847656 733.578125 287.464844 C 733.964844 287.082031 734.167969 286.574219 734.167969 286.035156 C 734.167969 285.496094 733.960938 284.988281 733.578125 284.609375 L 719.082031 270.113281 Z M 719.082031 270.117188 " fill-opacity="1" fill-rule="nonzero"/></svg>